<?xml version="1.0" encoding="UTF-8" standalone="no"?>
<svg
   xmlns:dc="http://purl.org/dc/elements/1.1/"
   xmlns:cc="http://creativecommons.org/ns#"
   xmlns:rdf="http://www.w3.org/1999/02/22-rdf-syntax-ns#"
   xmlns:svg="http://www.w3.org/2000/svg"
   xmlns="http://www.w3.org/2000/svg"
   xmlns:sodipodi="http://sodipodi.sourceforge.net/DTD/sodipodi-0.dtd"
   xmlns:inkscape="http://www.inkscape.org/namespaces/inkscape"
   inkscape:export-ydpi="101.60017"
   inkscape:export-xdpi="101.60017"
   inkscape:export-filename="/home/matt/Desktop/code/web/personalsite/icon/512x512.png"
   width="512"
   height="512"
   viewBox="0 0 135.46666 135.46667"
   version="1.1"
   id="svg8"
   inkscape:version="1.0 (4035a4fb49, 2020-05-01)"
   sodipodi:docname="favicon.svg">
  <defs
     id="defs2">
    <filter
       height="1.2070521"
       y="-0.10352605"
       width="1.1382902"
       x="-0.069145078"
       id="filter992"
       style="color-interpolation-filters:sRGB"
       inkscape:collect="always">
      <feGaussianBlur
         id="feGaussianBlur994"
         stdDeviation="2.7369925"
         inkscape:collect="always" />
    </filter>
  </defs>
  <sodipodi:namedview
     id="base"
     pagecolor="#ffffff"
     bordercolor="#666666"
     borderopacity="1.0"
     inkscape:pageopacity="0.0"
     inkscape:pageshadow="2"
     inkscape:zoom="0.75"
     inkscape:cx="93.768205"
     inkscape:cy="199.22901"
     inkscape:document-units="mm"
     inkscape:current-layer="layer1"
     inkscape:document-rotation="0"
     showgrid="false"
     units="px"
     width="64px"
     inkscape:window-width="1920"
     inkscape:window-height="1024"
     inkscape:window-x="0"
     inkscape:window-y="28"
     inkscape:window-maximized="1" />
  <metadata
     id="metadata5">
    <rdf:RDF>
      <cc:Work
         rdf:about="">
        <dc:format>image/svg+xml</dc:format>
        <dc:type
           rdf:resource="http://purl.org/dc/dcmitype/StillImage" />
        <dc:title />
      </cc:Work>
    </rdf:RDF>
  </metadata>
  <g
     inkscape:label="Layer 1"
     inkscape:groupmode="layer"
     id="layer1">
    <ellipse
       ry="63.999889"
       rx="64"
       cy="67.73333"
       cx="67.73333"
       id="path858"
       style="fill:#593c78;fill-opacity:1;stroke:none;stroke-width:0.281156;paint-order:stroke fill markers" />
    <path
       id="path946"
       style="font-style:normal;font-variant:normal;font-weight:normal;font-stretch:normal;font-size:100.021px;line-height:1.25;font-family:'DM Serif Display';-inkscape-font-specification:'DM Serif Display, Normal';font-variant-ligatures:normal;font-variant-caps:normal;font-variant-numeric:normal;font-variant-east-asian:normal;letter-spacing:0px;word-spacing:0px;fill:#a88bc5;fill-opacity:0.32957107;stroke:none;stroke-width:0.50071;filter:url(#filter992)"
       d="m 20.233335,36.008071 v 0.96112 l 2.499398,1.153833 c 1.217744,0.512736 1.954949,1.153631 2.211317,1.92273 0.320461,0.769103 0.480303,1.794727 0.480303,3.07656 v 49.222059 c 0,2.948205 -1.08917,4.775077 -3.268289,5.480117 l -1.922729,0.673075 v 0.96103 h 12.690208 v -0.96103 L 30.808096,97.82449 c -1.217753,-0.384504 -2.050755,-0.993676 -2.4994,-1.826871 -0.384546,-0.897304 -0.57667,-2.050501 -0.57667,-3.460516 V 68.310005 L 27.443448,44.372014 48.401236,99.458595 H 53.20832 L 73.051009,44.393867 c 0.04621,3.272017 0.07399,6.562198 0.07399,9.880378 v 11.536369 3.045279 l -0.0164,2.338464 v 14.206134 c -0.01451,2.551158 -0.03751,5.093351 -0.07948,7.616933 0,1.281774 -0.224388,2.307386 -0.673038,3.076524 -0.165699,0.284094 -0.389186,0.545916 -0.668554,0.786303 -0.366311,0.269733 -0.818858,0.521215 -1.366921,0.752035 l -1.067901,0.457997 -1.222879,0.407282 v 0.96103 h 0.272194 23.937998 1.939106 v -0.96103 l -2.883851,-0.865279 c -2.43549,-0.76915 -3.653238,-2.403395 -3.653238,-4.902956 -0.06415,-3.909619 -0.09634,-7.88355 -0.09634,-11.92133 V 67.925567 h 9.99857 c 1.47406,0 2.531505,0.352468 3.172455,1.057489 0.70497,0.704998 1.37769,1.634321 2.01857,2.787971 l 2.11487,3.653234 h 0.96168 V 58.600516 h -0.96167 l -2.01855,3.653221 c -0.64084,1.217751 -1.31405,2.14707 -2.01909,2.787985 -0.70495,0.640919 -1.794195,0.961118 -3.268255,0.961118 H 87.545737 V 51.870715 c 0,-4.742802 0.03221,-9.389389 0.09637,-13.939908 h 15.477673 c 1.47404,0 2.6279,0.352472 3.46102,1.057458 0.83318,0.70502 1.57046,1.666117 2.21136,2.883853 l 5.47957,10.094452 h 0.9616 L 114.56027,36.008071 H 83.939685 77.948979 73.301335 L 56.572958,82.538502 38.787595,36.008071 Z" />
    <path
       d="m 20.233335,36.008071 v 0.96112 l 2.499398,1.153833 c 1.217744,0.512736 1.954949,1.153631 2.211317,1.92273 0.320461,0.769103 0.480303,1.794727 0.480303,3.07656 v 49.222059 c 0,2.948205 -1.08917,4.775077 -3.268289,5.480117 l -1.922729,0.673075 v 0.96103 h 12.690208 v -0.96103 L 30.808096,97.82449 c -1.217753,-0.384504 -2.050755,-0.993676 -2.4994,-1.826871 -0.384546,-0.897304 -0.57667,-2.050501 -0.57667,-3.460516 V 68.310005 L 27.443448,44.372014 48.401236,99.458595 H 53.20832 L 73.051009,44.393867 c 0.04621,3.272017 0.07399,6.562198 0.07399,9.880378 v 11.536369 3.045279 l -0.0164,2.338464 v 14.206134 c -0.01451,2.551158 -0.03751,5.093351 -0.07948,7.616933 0,1.281774 -0.224388,2.307386 -0.673038,3.076524 -0.165699,0.284094 -0.389186,0.545916 -0.668554,0.786303 -0.366311,0.269733 -0.818858,0.521215 -1.366921,0.752035 l -1.067901,0.457997 -1.222879,0.407282 v 0.96103 h 0.272194 23.937998 1.939106 v -0.96103 l -2.883851,-0.865279 c -2.43549,-0.76915 -3.653238,-2.403395 -3.653238,-4.902956 -0.06415,-3.909619 -0.09634,-7.88355 -0.09634,-11.92133 V 67.925567 h 9.99857 c 1.47406,0 2.531505,0.352468 3.172455,1.057489 0.70497,0.704998 1.37769,1.634321 2.01857,2.787971 l 2.11487,3.653234 h 0.96168 V 58.600516 h -0.96167 l -2.01855,3.653221 c -0.64084,1.217751 -1.31405,2.14707 -2.01909,2.787985 -0.70495,0.640919 -1.794195,0.961118 -3.268255,0.961118 H 87.545737 V 51.870715 c 0,-4.742802 0.03221,-9.389389 0.09637,-13.939908 h 15.477673 c 1.47404,0 2.6279,0.352472 3.46102,1.057458 0.83318,0.70502 1.57046,1.666117 2.21136,2.883853 l 5.47957,10.094452 h 0.9616 L 114.56027,36.008071 H 83.939685 77.948979 73.301335 L 56.572958,82.538502 38.787595,36.008071 Z"
       style="font-style:normal;font-variant:normal;font-weight:normal;font-stretch:normal;font-size:100.021px;line-height:1.25;font-family:'DM Serif Display';-inkscape-font-specification:'DM Serif Display, Normal';font-variant-ligatures:normal;font-variant-caps:normal;font-variant-numeric:normal;font-variant-east-asian:normal;letter-spacing:0px;word-spacing:0px;fill:#b198cb;fill-opacity:0.60797328;stroke:none;stroke-width:0.50071"
       id="path840" />
  </g>
</svg>
